<?xml version="1.0" standalone="no"?>
<!DOCTYPE svg PUBLIC "-//W3C//DTD SVG 20010904//EN"
 "http://www.w3.org/TR/2001/REC-SVG-20010904/DTD/svg10.dtd">
<svg version="1.0" xmlns="http://www.w3.org/2000/svg"
 width="64.000000pt" height="64.000000pt" viewBox="0 0 64.000000 64.000000"
 preserveAspectRatio="xMidYMid meet">

<g transform="translate(0.000000,64.000000) scale(0.100000,-0.100000)"
fill="#0d6efd" stroke="none">
<path d="M190 440 l0 -140 -53 0 c-52 0 -55 -1 -85 -44 -31 -42 -32 -48 -32
-140 l0 -96 300 0 300 0 0 96 c0 92 -1 98 -32 140 -30 43 -33 44 -85 44 l-53
0 0 140 0 140 -130 0 -130 0 0 -140z m172 90 c9 -17 29 -35 43 -42 24 -11 25
-15 25 -94 0 -72 -2 -83 -19 -89 -10 -3 -26 -14 -36 -25 -12 -13 -31 -20 -55
-20 -24 0 -43 7 -55 20 -10 11 -26 22 -36 25 -17 6 -19 17 -19 88 0 81 1 82
30 99 17 9 35 29 42 43 16 36 58 34 80 -5z m-172 -260 c0 -5 -9 -10 -20 -10
-11 0 -20 -4 -20 -10 0 -6 63 -10 170 -10 107 0 170 4 170 10 0 6 -9 10 -20
10 -11 0 -20 5 -20 10 0 6 22 10 48 10 42 0 51 -4 70 -30 l23 -30 -271 0 -271
0 23 30 c19 26 28 30 70 30 26 0 48 -4 48 -10z m-45 -150 c0 -42 -2 -45 -27
-48 -27 -3 -28 -2 -28 48 0 50 1 51 28 48 25 -3 27 -6 27 -48z m80 0 c0 -41
-2 -45 -25 -45 -21 0 -26 5 -28 33 -5 47 4 64 30 60 20 -3 23 -9 23 -48z m53
28 l11 -23 0 23 c2 46 21 20 21 -28 0 -54 -10 -64 -28 -27 l-11 22 0 -22 c-2
-47 -21 -21 -21 27 0 54 10 64 28 28z m110 -30 c2 -29 -1 -48 -7 -48 -6 0 -11
9 -11 20 0 11 -4 20 -10 20 -5 0 -10 -9 -10 -20 0 -11 -4 -20 -10 -20 -11 0
-14 83 -3 94 4 4 16 6 28 4 16 -2 21 -12 23 -50z m82 42 c0 -5 -4 -10 -10 -10
-5 0 -10 -18 -10 -40 0 -22 -4 -40 -10 -40 -5 0 -10 18 -10 40 0 22 -4 40 -10
40 -5 0 -10 5 -10 10 0 6 14 10 30 10 17 0 30 -4 30 -10z m80 0 c0 -5 -9 -10
-20 -10 -11 0 -20 -4 -20 -10 0 -5 9 -10 20 -10 11 0 20 -4 20 -10 0 -5 -9
-10 -20 -10 -11 0 -20 -4 -20 -10 0 -5 9 -10 20 -10 11 0 20 -4 20 -10 0 -5
-13 -10 -30 -10 -29 0 -30 1 -30 50 0 49 1 50 30 50 17 0 30 -4 30 -10z"/>
<path d="M310 500 c0 -5 5 -10 10 -10 6 0 10 5 10 10 0 6 -4 10 -10 10 -5 0
-10 -4 -10 -10z"/>
<path d="M272 437 c-28 -30 -28 -68 1 -95 30 -28 68 -28 95 1 28 30 28 68 -1
95 -30 28 -68 28 -95 -1z m75 -4 c14 -6 10 -9 -17 -13 -29 -4 -35 -9 -35 -30
0 -21 6 -26 35 -30 27 -4 31 -7 17 -13 -10 -4 -25 -7 -32 -7 -20 0 -45 28 -45
50 0 22 25 50 45 50 7 0 22 -3 32 -7z"/>
<path d="M310 280 c0 -5 5 -10 10 -10 6 0 10 5 10 10 0 6 -4 10 -10 10 -5 0
-10 -4 -10 -10z"/>
<path d="M110 120 c0 -16 5 -30 10 -30 6 0 10 14 10 30 0 17 -4 30 -10 30 -5
0 -10 -13 -10 -30z"/>
<path d="M190 120 c0 -16 5 -30 10 -30 6 0 10 14 10 30 0 17 -4 30 -10 30 -5
0 -10 -13 -10 -30z"/>
<path d="M350 140 c0 -5 5 -10 10 -10 6 0 10 5 10 10 0 6 -4 10 -10 10 -5 0
-10 -4 -10 -10z"/>
</g>
</svg>
