<?xml version="1.0" standalone="no"?>
<!DOCTYPE svg PUBLIC "-//W3C//DTD SVG 20010904//EN"
 "http://www.w3.org/TR/2001/REC-SVG-20010904/DTD/svg10.dtd">
<svg version="1.0" xmlns="http://www.w3.org/2000/svg"
 width="64.000000pt" height="64.000000pt" viewBox="0 0 64.000000 64.000000"
 preserveAspectRatio="xMidYMid meet">

<g transform="translate(0.000000,64.000000) scale(0.100000,-0.100000)"
fill="#0d6efd" stroke="none">
<path d="M92 550 c-61 -37 -73 -71 -68 -190 6 -129 6 -114 0 -237 -4 -70 -2
-103 5 -103 6 0 11 21 11 50 0 44 3 50 20 50 19 0 20 -4 14 -50 -4 -31 -3 -50
3 -50 6 0 13 21 17 46 9 67 7 104 -4 104 -5 0 -10 -7 -10 -15 0 -8 -9 -15 -20
-15 -30 0 -28 59 3 88 27 25 47 28 47 8 0 -7 11 -21 25 -30 23 -15 27 -15 50
0 14 9 25 23 25 31 0 30 38 -7 53 -52 15 -43 15 -45 -3 -45 -11 0 -23 8 -29
17 -15 27 -26 7 -13 -22 7 -14 12 -46 12 -70 l0 -45 125 0 c116 0 125 1 125
19 0 17 3 18 30 8 22 -8 35 -8 47 -1 34 21 56 63 57 106 1 41 0 43 -29 43 -26
0 -30 -4 -30 -27 -1 -16 -6 -33 -13 -40 -9 -9 -12 -9 -12 0 0 34 -44 124 -66
134 l-23 11 19 25 c11 13 20 30 20 36 0 6 9 19 20 29 43 36 15 142 -49 184
-45 31 -98 30 -145 -2 l-36 -24 -36 24 c-45 31 -97 32 -142 5z m102 -35 c11
-8 28 -15 38 -15 10 0 18 -4 18 -10 0 -5 -7 -10 -15 -10 -22 0 -75 29 -75 40
0 14 12 12 34 -5z m210 0 c11 -8 28 -15 38 -15 10 0 18 -4 18 -10 0 -5 -7 -10
-15 -10 -22 0 -75 29 -75 40 0 14 12 12 34 -5z m-260 -44 c3 -4 26 -14 51 -21
l45 -13 0 -59 c0 -49 -4 -63 -25 -83 -32 -33 -78 -33 -110 0 -21 20 -25 34
-25 85 0 52 4 65 23 81 25 21 33 23 41 10z m220 0 c3 -4 26 -14 51 -21 l45
-13 0 -59 c0 -49 -4 -63 -25 -83 -32 -33 -78 -33 -110 0 -21 20 -25 34 -25 85
0 52 4 65 23 81 25 21 33 23 41 10z m-304 -83 c0 -16 -3 -19 -11 -11 -6 6 -8
16 -5 22 11 17 16 13 16 -11z m212 -10 c-9 -9 -12 -7 -12 12 0 19 3 21 12 12
9 -9 9 -15 0 -24z m220 0 c-9 -9 -12 -7 -12 12 0 19 3 21 12 12 9 -9 9 -15 0
-24z m-304 -140 c-3 -7 -15 -13 -28 -13 -13 0 -25 6 -27 13 -3 8 6 12 27 12
21 0 30 -4 28 -12z m220 0 c-3 -7 -15 -13 -28 -13 -13 0 -25 6 -27 13 -3 8 6
12 27 12 21 0 30 -4 28 -12z m-38 -78 c0 -12 -7 -35 -16 -53 -28 -53 -51 -60
-84 -25 -11 12 -20 25 -20 30 0 15 29 8 39 -9 9 -17 11 -16 35 6 19 18 24 30
20 48 -5 17 -2 23 10 23 9 0 16 -8 16 -20z m230 0 c0 -12 -7 -35 -16 -53 -28
-53 -51 -60 -84 -25 -11 12 -20 25 -20 30 0 15 29 8 39 -9 9 -17 11 -16 35 6
19 18 24 30 20 48 -5 17 -2 23 10 23 9 0 16 -8 16 -20z"/>
<path d="M90 410 c0 -5 11 -10 25 -10 14 0 25 5 25 10 0 6 -11 10 -25 10 -14
0 -25 -4 -25 -10z"/>
<path d="M180 410 c0 -5 11 -10 25 -10 14 0 25 5 25 10 0 6 -11 10 -25 10 -14
0 -25 -4 -25 -10z"/>
<path d="M110 370 c0 -5 5 -10 10 -10 6 0 10 5 10 10 0 6 -4 10 -10 10 -5 0
-10 -4 -10 -10z"/>
<path d="M190 370 c0 -5 5 -10 10 -10 6 0 10 5 10 10 0 6 -4 10 -10 10 -5 0
-10 -4 -10 -10z"/>
<path d="M123 315 c2 -5 19 -10 37 -10 18 0 35 5 37 10 2 6 -14 10 -37 10 -23
0 -39 -4 -37 -10z"/>
<path d="M310 410 c0 -5 11 -10 25 -10 14 0 25 5 25 10 0 6 -11 10 -25 10 -14
0 -25 -4 -25 -10z"/>
<path d="M400 410 c0 -5 11 -10 25 -10 14 0 25 5 25 10 0 6 -11 10 -25 10 -14
0 -25 -4 -25 -10z"/>
<path d="M330 370 c0 -5 5 -10 10 -10 6 0 10 5 10 10 0 6 -4 10 -10 10 -5 0
-10 -4 -10 -10z"/>
<path d="M410 370 c0 -5 5 -10 10 -10 6 0 10 5 10 10 0 6 -4 10 -10 10 -5 0
-10 -4 -10 -10z"/>
<path d="M343 315 c2 -5 19 -10 37 -10 18 0 35 5 37 10 2 6 -14 10 -37 10 -23
0 -39 -4 -37 -10z"/>
<path d="M127 154 c-13 -13 -7 -41 13 -59 19 -17 21 -17 40 0 30 27 22 59 -15
63 -17 2 -34 0 -38 -4z"/>
</g>
</svg>
